<svg width="35" height="47" viewBox="0 0 35 47" fill="none" xmlns="http://www.w3.org/2000/svg">
<path d="M17.5 0C12.8587 0 8.40752 1.9807 5.12563 5.50638C1.84374 9.03205 0 13.8139 0 18.7999C0 31.4899 15.4219 45.8249 16.0781 46.4359C16.4744 46.7999 16.9786 47 17.5 47C18.0214 47 18.5256 46.7999 18.9219 46.4359C19.6875 45.8249 35 31.4899 35 18.7999C35 13.8139 33.1563 9.03205 29.8744 5.50638C26.5925 1.9807 22.1413 0 17.5 0ZM17.5 41.4774C12.8406 36.7774 4.375 26.6489 4.375 18.7999C4.375 15.0604 5.75781 11.474 8.21922 8.82977C10.6806 6.18551 14.019 4.69999 17.5 4.69999C20.981 4.69999 24.3194 6.18551 26.7808 8.82977C29.2422 11.474 30.625 15.0604 30.625 18.7999C30.625 26.6489 22.1594 36.8009 17.5 41.4774Z" fill="#170185"/>
<rect x="21" y="14" width="5" height="14" fill="#9B0000"/>
<rect x="15" y="16" width="5" height="12" fill="#9B0000"/>
<rect x="9" y="19" width="5" height="9" fill="#9B0000"/>
</svg>
